<svg version="1.1" id="Layer_1" xmlns="http://www.w3.org/2000/svg" xmlns:xlink="http://www.w3.org/1999/xlink" x="0px" y="0px"
	 width="100%" viewBox="0 0 500 500" enable-background="new 0 0 500 500" xml:space="preserve">
<path fill="#000000" opacity="1.000000" stroke="none" 
	d="
M447.000000,501.000000 
	C298.000031,501.000000 149.500076,501.000000 1.000080,501.000000 
	C1.000053,334.333405 1.000053,167.666824 1.000027,1.000169 
	C167.666550,1.000113 334.333099,1.000113 500.999756,1.000056 
	C500.999817,167.666519 500.999817,334.333038 500.999908,500.999756 
	C483.166656,501.000000 465.333344,501.000000 447.000000,501.000000 
M377.117432,268.190155 
	C377.116486,263.867371 377.175262,259.543518 377.098969,255.222061 
	C377.010559,250.213577 374.468719,246.825256 369.974426,244.750870 
	C363.697357,241.853607 357.783417,242.415161 353.625885,245.749817 
	C351.079254,244.919327 349.665619,244.101562 348.226318,244.053604 
	C343.243561,243.887543 338.241638,244.182236 333.267487,243.916962 
	C330.273682,243.757294 328.871643,244.899734 327.785492,247.568558 
	C325.838409,252.352859 323.503571,256.979370 320.917175,262.565094 
	C318.428345,257.019928 316.347015,252.690948 314.542023,248.249680 
	C313.394684,245.426529 312.147064,243.835098 308.535492,243.798355 
	C304.725616,243.759583 303.331696,245.442444 302.120300,248.455780 
	C300.304993,252.971451 298.212982,257.375885 295.982513,262.405090 
	C295.197937,261.034882 294.916382,260.619690 294.709595,260.170135 
	C292.836975,256.099060 290.978119,252.021606 289.113800,247.946686 
	C287.517395,244.457443 277.170746,242.128311 274.275665,244.684189 
	C274.025238,244.905273 274.446930,245.887756 273.920624,247.144653 
	C273.716034,247.361221 273.511444,247.577774 272.687286,247.467834 
	C261.827942,240.320831 251.465088,241.663010 241.256287,249.838852 
	C241.110062,247.623627 240.997269,245.914886 240.884613,244.208054 
	C238.361816,244.018875 236.274078,243.862335 233.653168,243.665802 
	C233.653168,239.315659 233.653168,235.254578 233.653168,231.351929 
	C229.353897,231.351929 225.625824,231.351929 221.482910,231.351929 
	C221.482910,235.688324 221.482910,239.626999 221.482910,243.988800 
	C218.598251,243.988800 216.107422,244.228027 213.681519,243.933090 
	C209.974091,243.482376 207.969681,244.792892 206.679260,248.399994 
	C205.023956,253.027115 202.694794,257.413147 200.629318,261.961731 
	C200.119308,261.594208 199.726791,261.461639 199.607254,261.202942 
	C197.381088,256.385345 195.224396,251.535446 192.972855,246.729935 
	C191.644302,243.894379 180.026123,242.550064 178.137192,245.021820 
	C177.800781,245.462006 178.004593,246.315048 177.998581,247.003693 
	C177.998581,247.003693 177.978653,246.960800 177.294998,246.794220 
	C172.446823,243.213608 166.697647,241.665817 161.235275,243.437271 
	C156.043365,245.121017 151.487411,248.765778 146.512634,251.628372 
	C146.512634,241.780579 146.512634,231.209732 146.512634,220.549652 
	C142.237671,220.549652 138.530182,220.549652 134.120850,220.549652 
	C134.120850,229.225937 134.120850,237.539932 134.120850,246.134796 
	C122.610710,241.043884 114.382187,242.523895 108.992798,250.211716 
	C103.903069,257.472015 104.571632,268.323059 110.502724,274.718689 
	C116.465065,281.148010 124.744461,281.728851 133.594849,276.345398 
	C137.147675,281.483978 141.984024,278.081024 146.383896,278.990814 
	C146.602768,275.657501 146.774170,273.047119 147.000427,269.601166 
	C157.708282,283.042664 176.482498,283.270233 182.281876,270.649597 
	C178.357742,268.621124 175.287384,265.746490 169.998627,269.387085 
	C164.899368,272.897247 159.108627,269.237274 158.655609,263.074677 
	C166.632431,263.074677 174.588257,263.074677 182.557327,263.074677 
	C182.950912,261.161560 183.277344,259.574768 183.603790,257.987976 
	C187.912079,263.754028 191.244125,269.634491 194.239822,275.681610 
	C195.540512,278.307190 197.194214,279.120972 200.044144,279.109070 
	C202.985397,279.096771 204.865356,278.536560 206.293243,275.606384 
	C209.567978,268.886230 213.229691,262.349640 216.902390,255.833282 
	C217.527130,254.724838 218.987015,254.087097 220.061066,253.231888 
	C220.595352,254.440994 221.510208,255.625168 221.591415,256.863983 
	C221.819656,260.346008 221.580490,263.856567 221.748260,267.345123 
	C222.241791,277.607361 228.957016,282.219482 238.772537,279.378265 
	C242.025070,278.436768 242.925323,277.023834 241.528427,273.945404 
	C241.686371,273.879242 241.844330,273.813049 242.600769,274.114563 
	C249.751343,280.597137 258.167786,281.555389 266.862518,278.689941 
	C276.589447,275.484283 280.303558,267.813660 280.058289,257.644745 
	C284.006012,263.948914 287.602753,270.074066 290.661987,276.456879 
	C292.304504,279.883881 295.014832,279.196320 297.407410,278.857971 
	C298.960419,278.638336 300.910614,277.300171 301.641327,275.914124 
	C304.027008,271.388763 305.934906,266.611511 308.396362,261.103760 
	C310.570435,265.965973 312.292389,270.044189 314.213135,274.026459 
	C315.344666,276.372375 315.598450,279.209717 319.727234,279.204193 
	C323.733917,279.198822 325.630829,277.795624 327.243195,274.399628 
	C329.878265,268.849579 332.979126,263.519775 335.913635,258.113373 
	C336.702972,256.659119 337.601013,255.263901 338.449188,253.841568 
	C338.837891,253.991562 339.226624,254.141571 339.615356,254.291565 
	C339.615356,262.402710 339.615356,270.513855 339.615356,278.712097 
	C343.842834,278.712097 347.584625,278.712097 351.799316,278.712097 
	C351.799316,272.636047 351.759033,266.844788 351.811249,261.054352 
	C351.858429,255.821030 354.586517,252.531479 358.775421,252.501617 
	C362.746124,252.473312 365.006317,255.470993 365.043488,260.953430 
	C365.083710,266.882172 365.052612,272.811401 365.052612,279.001587 
	C368.721008,279.001587 371.712769,279.152618 374.670746,278.903076 
	C375.484161,278.834473 376.196594,277.568726 377.151306,276.072388 
	C378.400940,272.634338 378.906525,275.645477 379.523743,276.391052 
	C383.046173,280.646057 388.073212,281.250519 391.616791,277.793945 
	C394.802979,274.686035 394.801392,269.788635 391.613190,266.650970 
	C388.021027,263.115753 383.232117,263.715424 379.497131,268.025787 
	C378.951447,268.655548 377.816528,268.774750 377.117432,268.190155 
z"/>
<path fill="#7CD556" opacity="1.000000" stroke="none" 
	d="
M177.958954,246.977448 
	C178.004593,246.315048 177.800781,245.462006 178.137192,245.021820 
	C180.026123,242.550064 191.644302,243.894379 192.972855,246.729935 
	C195.224396,251.535446 197.381088,256.385345 199.607254,261.202942 
	C199.726791,261.461639 200.119308,261.594208 200.629318,261.961731 
	C202.694794,257.413147 205.023956,253.027115 206.679260,248.399994 
	C207.969681,244.792892 209.974091,243.482376 213.681519,243.933090 
	C216.107422,244.228027 218.598251,243.988800 221.482910,243.988800 
	C221.482910,239.626999 221.482910,235.688324 221.482910,231.351929 
	C225.625824,231.351929 229.353897,231.351929 233.653168,231.351929 
	C233.653168,235.254578 233.653168,239.315659 233.653168,243.665802 
	C236.274078,243.862335 238.361816,244.018875 240.884613,244.208054 
	C240.997269,245.914886 241.110062,247.623627 241.256287,249.838852 
	C251.465088,241.663010 261.827942,240.320831 273.161987,247.839874 
	C274.063721,248.504761 274.490692,248.797592 275.009125,249.354538 
	C275.345734,249.628906 275.590912,249.639191 275.836121,249.649475 
	C275.760406,249.255280 275.684723,248.861084 275.510132,248.206039 
	C275.126251,247.468964 274.841339,246.992752 274.556396,246.516541 
	C274.446930,245.887756 274.025238,244.905273 274.275665,244.684189 
	C277.170746,242.128311 287.517395,244.457443 289.113800,247.946686 
	C290.978119,252.021606 292.836975,256.099060 294.709595,260.170135 
	C294.916382,260.619690 295.197937,261.034882 295.982513,262.405090 
	C298.212982,257.375885 300.304993,252.971451 302.120300,248.455780 
	C303.331696,245.442444 304.725616,243.759583 308.535492,243.798355 
	C312.147064,243.835098 313.394684,245.426529 314.542023,248.249680 
	C316.347015,252.690948 318.428345,257.019928 320.917175,262.565094 
	C323.503571,256.979370 325.838409,252.352859 327.785492,247.568558 
	C328.871643,244.899734 330.273682,243.757294 333.267487,243.916962 
	C338.241638,244.182236 343.243561,243.887543 348.226318,244.053604 
	C349.665619,244.101562 351.079254,244.919327 353.625885,245.749817 
	C357.783417,242.415161 363.697357,241.853607 369.974426,244.750870 
	C374.468719,246.825256 377.010559,250.213577 377.098969,255.222061 
	C377.175262,259.543518 377.116486,263.867371 377.025848,269.089417 
	C376.941315,272.276520 376.948334,274.564423 376.955353,276.852295 
	C376.196594,277.568726 375.484161,278.834473 374.670746,278.903076 
	C371.712769,279.152618 368.721008,279.001587 365.052612,279.001587 
	C365.052612,272.811401 365.083710,266.882172 365.043488,260.953430 
	C365.006317,255.470993 362.746124,252.473312 358.775421,252.501617 
	C354.586517,252.531479 351.858429,255.821030 351.811249,261.054352 
	C351.759033,266.844788 351.799316,272.636047 351.799316,278.712097 
	C347.584625,278.712097 343.842834,278.712097 339.615356,278.712097 
	C339.615356,270.513855 339.615356,262.402710 339.615356,254.291565 
	C339.226624,254.141571 338.837891,253.991562 338.449188,253.841568 
	C337.601013,255.263901 336.702972,256.659119 335.913635,258.113373 
	C332.979126,263.519775 329.878265,268.849579 327.243195,274.399628 
	C325.630829,277.795624 323.733917,279.198822 319.727234,279.204193 
	C315.598450,279.209717 315.344666,276.372375 314.213135,274.026459 
	C312.292389,270.044189 310.570435,265.965973 308.396362,261.103760 
	C305.934906,266.611511 304.027008,271.388763 301.641327,275.914124 
	C300.910614,277.300171 298.960419,278.638336 297.407410,278.857971 
	C295.014832,279.196320 292.304504,279.883881 290.661987,276.456879 
	C287.602753,270.074066 284.006012,263.948914 280.058289,257.644745 
	C280.303558,267.813660 276.589447,275.484283 266.862518,278.689941 
	C258.167786,281.555389 249.751343,280.597137 242.221298,273.683105 
	C241.570999,272.810852 241.300171,272.370087 240.994141,271.894043 
	C240.958969,271.858765 240.922714,272.032684 240.942566,272.381836 
	C240.990875,273.196350 241.019348,273.661713 241.047821,274.127106 
	C242.925323,277.023834 242.025070,278.436768 238.772537,279.378265 
	C228.957016,282.219482 222.241791,277.607361 221.748260,267.345123 
	C221.580490,263.856567 221.819656,260.346008 221.591415,256.863983 
	C221.510208,255.625168 220.595352,254.440994 220.061066,253.231888 
	C218.987015,254.087097 217.527130,254.724838 216.902390,255.833282 
	C213.229691,262.349640 209.567978,268.886230 206.293243,275.606384 
	C204.865356,278.536560 202.985397,279.096771 200.044144,279.109070 
	C197.194214,279.120972 195.540512,278.307190 194.239822,275.681610 
	C191.244125,269.634491 187.912079,263.754028 183.603790,257.987976 
	C183.277344,259.574768 182.950912,261.161560 182.557327,263.074677 
	C174.588257,263.074677 166.632431,263.074677 158.655609,263.074677 
	C159.108627,269.237274 164.899368,272.897247 169.998627,269.387085 
	C175.287384,265.746490 178.357742,268.621124 182.281876,270.649597 
	C176.482498,283.270233 157.708282,283.042664 147.000427,269.601166 
	C146.774170,273.047119 146.602768,275.657501 146.383896,278.990814 
	C141.984024,278.081024 137.147675,281.483978 133.594849,276.345398 
	C124.744461,281.728851 116.465065,281.148010 110.502724,274.718689 
	C104.571632,268.323059 103.903069,257.472015 108.992798,250.211716 
	C114.382187,242.523895 122.610710,241.043884 134.120850,246.134796 
	C134.120850,237.539932 134.120850,229.225937 134.120850,220.549652 
	C138.530182,220.549652 142.237671,220.549652 146.512634,220.549652 
	C146.512634,231.209732 146.512634,241.780579 146.512634,251.628372 
	C151.487411,248.765778 156.043365,245.121017 161.235275,243.437271 
	C166.697647,241.665817 172.446823,243.213608 177.694580,247.118103 
	C178.382141,247.895401 178.670090,248.348831 178.958038,248.802277 
	C179.174072,248.624146 179.390091,248.446030 179.606125,248.267914 
	C179.057068,247.837753 178.508011,247.407608 177.958954,246.977448 
M263.465790,254.936874 
	C259.384705,252.351913 255.461731,252.616379 252.331665,256.285583 
	C249.690201,259.382019 249.700989,263.135284 252.010712,266.426178 
	C254.403595,269.835571 257.937775,270.389862 261.769531,269.034027 
	C266.738068,267.275940 268.727875,259.678406 263.465790,254.936874 
M121.004791,255.451584 
	C117.049873,261.010284 118.085373,267.103912 123.403801,269.054901 
	C127.232735,270.459503 130.728775,269.741638 133.128143,266.334778 
	C135.474380,263.003326 135.423355,259.324402 132.733826,256.232727 
	C129.546783,252.569122 125.641060,252.393295 121.004791,255.451584 
M238.072632,257.080902 
	C238.348633,255.978973 238.624619,254.877060 238.963745,253.523041 
	C237.196884,253.523041 235.679993,253.523041 234.205688,253.523041 
	C232.845673,266.606415 233.473541,268.887817 237.950409,268.341553 
	C237.950409,264.860382 237.950409,261.404358 238.072632,257.080902 
M159.493942,256.167755 
	C163.362183,256.167755 167.230423,256.167755 171.098663,256.167755 
	C171.343231,255.562836 171.587784,254.957916 171.832352,254.352997 
	C169.683548,253.210632 167.637146,251.456375 165.360901,251.075348 
	C162.271576,250.558228 159.473618,251.743195 159.493942,256.167755 
M181.562119,251.952301 
	C181.562119,251.952301 181.558228,252.020889 181.562119,251.952301 
M146.548172,255.025436 
	C146.548172,255.025436 146.480026,255.049377 146.548172,255.025436 
M182.974808,255.543594 
	C182.974808,255.543594 182.953018,255.480469 182.974808,255.543594 
M146.435791,268.050751 
	C146.435791,268.050751 146.439667,267.979584 146.435791,268.050751 
z"/>
<path fill="#79D154" opacity="1.000000" stroke="none" 
	d="
M377.053345,276.462341 
	C376.948334,274.564423 376.941315,272.276520 376.944275,269.559418 
	C377.816528,268.774750 378.951447,268.655548 379.497131,268.025787 
	C383.232117,263.715424 388.021027,263.115753 391.613190,266.650970 
	C394.801392,269.788635 394.802979,274.686035 391.616791,277.793945 
	C388.073212,281.250519 383.046173,280.646057 379.523743,276.391052 
	C378.906525,275.645477 378.400940,272.634338 377.053345,276.462341 
z"/>
<path fill="#7BD455" opacity="1.000000" stroke="none" 
	d="
M241.029327,271.929291 
	C241.300171,272.370087 241.570999,272.810852 241.922058,273.499237 
	C241.844330,273.813049 241.686371,273.879242 241.288116,274.036255 
	C241.019348,273.661713 240.990875,273.196350 240.971237,272.358063 
	C240.980072,271.985168 241.029327,271.929291 241.029327,271.929291 
z"/>
<path fill="#040703" opacity="1.000000" stroke="none" 
	d="
M263.758575,255.174210 
	C268.727875,259.678406 266.738068,267.275940 261.769531,269.034027 
	C257.937775,270.389862 254.403595,269.835571 252.010712,266.426178 
	C249.700989,263.135284 249.690201,259.382019 252.331665,256.285583 
	C255.461731,252.616379 259.384705,252.351913 263.758575,255.174210 
z"/>
<path fill="#040703" opacity="1.000000" stroke="none" 
	d="
M121.294968,255.215332 
	C125.641060,252.393295 129.546783,252.569122 132.733826,256.232727 
	C135.423355,259.324402 135.474380,263.003326 133.128143,266.334778 
	C130.728775,269.741638 127.232735,270.459503 123.403801,269.054901 
	C118.085373,267.103912 117.049873,261.010284 121.294968,255.215332 
z"/>
<path fill="#040703" opacity="1.000000" stroke="none" 
	d="
M238.011520,257.514618 
	C237.950409,261.404358 237.950409,264.860382 237.950409,268.341553 
	C233.473541,268.887817 232.845673,266.606415 234.205688,253.523041 
	C235.679993,253.523041 237.196884,253.523041 238.963745,253.523041 
	C238.624619,254.877060 238.348633,255.978973 238.011520,257.514618 
z"/>
<path fill="#040703" opacity="1.000000" stroke="none" 
	d="
M159.223236,255.855896 
	C159.473618,251.743195 162.271576,250.558228 165.360901,251.075348 
	C167.637146,251.456375 169.683548,253.210632 171.832352,254.352997 
	C171.587784,254.957916 171.343231,255.562836 171.098663,256.167755 
	C167.230423,256.167755 163.362183,256.167755 159.223236,255.855896 
z"/>
<path fill="#7BD455" opacity="1.000000" stroke="none" 
	d="
M177.978760,246.990570 
	C178.508011,247.407608 179.057068,247.837753 179.606125,248.267914 
	C179.390091,248.446030 179.174072,248.624146 178.958038,248.802277 
	C178.670090,248.348831 178.382141,247.895401 178.036407,247.201385 
	C177.978653,246.960800 177.998581,247.003693 177.978760,246.990570 
z"/>
<path fill="#7BD455" opacity="1.000000" stroke="none" 
	d="
M181.560181,251.986603 
	C181.558228,252.020889 181.562119,251.952301 181.560181,251.986603 
z"/>
<path fill="#7BD455" opacity="1.000000" stroke="none" 
	d="
M146.514099,255.037415 
	C146.480026,255.049377 146.548172,255.025436 146.514099,255.037415 
z"/>
<path fill="#7BD455" opacity="1.000000" stroke="none" 
	d="
M182.963913,255.512024 
	C182.953018,255.480469 182.974808,255.543594 182.963913,255.512024 
z"/>
<path fill="#7BD455" opacity="1.000000" stroke="none" 
	d="
M146.437729,268.015167 
	C146.439667,267.979584 146.435791,268.050751 146.437729,268.015167 
z"/>
<path fill="#000000" opacity="1.000000" stroke="none" 
	d="
M274.238525,246.830597 
	C274.841339,246.992752 275.126251,247.468964 275.333313,248.357513 
	C275.255432,248.769867 274.917694,249.090439 274.917694,249.090439 
	C274.490692,248.797592 274.063721,248.504761 273.471802,248.003113 
	C273.511444,247.577774 273.716034,247.361221 274.238525,246.830597 
z"/>
<path fill="#000000" opacity="1.000000" stroke="none" 
	d="
M275.432251,248.618378 
	C275.684723,248.861084 275.760406,249.255280 275.836121,249.649475 
	C275.590912,249.639191 275.345734,249.628906 275.009125,249.354538 
	C274.917694,249.090439 275.255432,248.769867 275.432251,248.618378 
z"/>
<path fill="#7BD455" opacity="1.000000" stroke="none" 
	d="
M240.951385,272.008911 
	C240.922714,272.032684 240.958969,271.858765 240.994141,271.894043 
	C241.029327,271.929291 240.980072,271.985168 240.951385,272.008911 
z"/>
</svg>